<svg id="svg" version="1.1" xmlns="http://www.w3.org/2000/svg" xmlns:xlink="http://www.w3.org/1999/xlink" width="400" height="63.36154776299879" viewBox="0, 0, 400,63.36154776299879"><g id="svgg"><path id="path0" d="M14.500 9.250 C 14.330 9.455,14.341 9.500,14.563 9.500 C 14.712 9.500,14.833 9.387,14.833 9.250 C 14.833 9.112,14.805 9.000,14.770 9.000 C 14.736 9.000,14.614 9.112,14.500 9.250 M45.167 10.604 C 45.167 10.825,45.212 10.837,45.417 10.667 C 45.554 10.553,45.667 10.431,45.667 10.396 C 45.667 10.362,45.554 10.333,45.417 10.333 C 45.279 10.333,45.167 10.455,45.167 10.604 M0.208 19.609 C 0.043 19.677,0.000 24.215,0.000 41.514 L 0.000 63.333 31.584 63.333 L 63.169 63.333 63.126 49.458 L 63.083 35.583 57.417 35.537 C 54.300 35.511,51.581 35.531,51.375 35.582 L 51.000 35.673 51.000 43.587 L 51.000 51.500 33.270 51.500 C 17.714 51.500,15.515 51.469,15.333 51.250 C 15.219 51.112,14.945 51.000,14.724 51.000 C 14.504 51.000,14.280 50.887,14.227 50.750 C 14.174 50.612,13.952 50.500,13.732 50.500 C 13.489 50.500,13.333 50.403,13.333 50.250 C 13.333 50.112,13.230 50.000,13.103 50.000 C 12.976 50.000,12.825 49.869,12.767 49.708 C 12.624 49.314,12.247 48.680,12.019 48.453 C 11.917 48.350,11.833 47.942,11.833 47.545 C 11.833 47.057,11.752 46.792,11.583 46.727 C 11.205 46.582,11.205 32.205,11.583 32.060 C 11.753 31.995,11.833 31.729,11.833 31.232 C 11.833 30.829,11.907 30.500,11.997 30.500 C 12.087 30.500,12.207 30.313,12.265 30.083 C 12.322 29.854,12.474 29.667,12.601 29.667 C 12.729 29.667,12.833 29.554,12.833 29.417 C 12.833 29.279,12.946 29.167,13.083 29.167 C 13.221 29.167,13.333 29.093,13.333 29.003 C 13.333 28.913,13.521 28.793,13.750 28.735 C 13.979 28.678,14.167 28.564,14.167 28.482 C 14.167 28.400,14.496 28.333,14.899 28.333 C 15.396 28.333,15.662 28.253,15.727 28.083 C 15.811 27.864,17.456 27.833,29.141 27.833 C 40.436 27.833,42.489 27.797,42.655 27.597 C 42.945 27.249,42.833 20.099,42.533 19.800 C 42.316 19.583,0.729 19.396,0.208 19.609 M20.071 39.917 C 20.071 41.842,20.095 42.606,20.124 41.616 C 20.154 40.626,20.154 39.051,20.124 38.116 C 20.095 37.181,20.070 37.992,20.071 39.917 M42.717 42.000 C 42.717 42.504,42.748 42.710,42.786 42.458 C 42.824 42.206,42.824 41.794,42.786 41.542 C 42.748 41.290,42.717 41.496,42.717 42.000 " stroke="none" fill="#ac242c" fill-rule="evenodd"></path><path id="path1" d="M0.000 5.417 C 0.000 9.638,0.046 10.834,0.208 10.836 C 0.347 10.838,0.333 10.892,0.167 11.000 C 0.016 11.097,-0.004 11.163,0.115 11.164 C 0.224 11.166,0.360 11.092,0.417 11.000 C 0.473 10.908,1.003 10.833,1.593 10.833 C 2.436 10.833,2.667 10.780,2.667 10.583 C 2.667 10.385,2.907 10.333,3.833 10.333 C 4.759 10.333,5.000 10.282,5.000 10.083 C 5.000 9.883,5.250 9.833,6.250 9.833 C 6.972 9.833,7.500 9.763,7.500 9.667 C 7.500 9.575,7.791 9.500,8.146 9.500 C 9.042 9.500,9.846 9.321,9.737 9.146 C 9.688 9.066,10.092 9.000,10.636 9.000 C 11.313 9.000,11.692 8.921,11.833 8.750 C 11.977 8.576,12.360 8.500,13.086 8.500 C 13.861 8.500,14.156 8.435,14.227 8.250 C 14.299 8.063,14.598 8.000,15.417 8.000 C 16.235 8.000,16.535 7.937,16.606 7.750 C 16.678 7.564,16.975 7.500,17.773 7.500 C 18.571 7.500,18.868 7.436,18.940 7.250 C 19.010 7.068,19.297 7.000,20.000 7.000 C 20.703 7.000,20.990 6.932,21.060 6.750 C 21.132 6.563,21.431 6.500,22.250 6.500 C 23.069 6.500,23.368 6.437,23.440 6.250 C 23.512 6.061,23.817 6.000,24.684 6.000 C 25.595 6.000,25.833 5.948,25.833 5.750 C 25.833 5.552,26.072 5.500,26.982 5.500 C 27.850 5.500,28.155 5.439,28.227 5.250 C 28.298 5.066,28.589 5.000,29.338 5.000 C 29.896 5.000,30.312 4.933,30.262 4.852 C 30.211 4.771,30.708 4.674,31.365 4.637 C 32.097 4.595,32.586 4.491,32.627 4.368 C 32.670 4.241,33.056 4.167,33.669 4.167 C 34.312 4.167,34.728 4.082,34.893 3.917 C 35.059 3.750,35.475 3.667,36.134 3.667 C 36.812 3.667,37.191 3.588,37.333 3.417 C 37.467 3.255,37.844 3.165,38.395 3.161 C 38.881 3.158,39.390 3.050,39.574 2.911 C 39.772 2.761,40.272 2.667,40.865 2.667 C 41.615 2.667,41.833 2.610,41.833 2.417 C 41.833 2.218,42.074 2.167,43.000 2.167 C 43.926 2.167,44.167 2.115,44.167 1.917 C 44.167 1.719,44.405 1.667,45.316 1.667 C 46.183 1.667,46.488 1.605,46.560 1.417 C 46.632 1.230,46.930 1.167,47.735 1.167 C 48.922 1.167,49.149 1.007,48.825 0.401 L 48.610 0.000 24.305 0.000 L 0.000 0.000 0.000 5.417 M53.060 2.917 C 52.986 3.110,52.663 3.167,51.637 3.167 C 50.679 3.167,50.240 3.236,50.060 3.417 C 49.882 3.594,49.448 3.667,48.560 3.667 C 47.671 3.667,47.237 3.739,47.060 3.917 C 46.877 4.099,46.431 4.167,45.400 4.167 C 44.300 4.167,43.968 4.222,43.894 4.417 C 43.819 4.611,43.488 4.667,42.399 4.667 C 41.629 4.667,41.000 4.732,41.000 4.812 C 41.000 4.892,40.393 4.992,39.651 5.035 C 38.910 5.078,38.253 5.192,38.193 5.288 C 38.133 5.384,37.452 5.491,36.680 5.525 C 35.762 5.567,35.252 5.660,35.207 5.794 C 35.161 5.934,34.721 6.000,33.831 6.000 C 32.891 6.000,32.454 6.070,32.274 6.250 C 32.095 6.428,31.661 6.500,30.757 6.500 C 29.784 6.500,29.467 6.558,29.394 6.750 C 29.319 6.945,28.988 7.000,27.894 7.000 C 26.799 7.000,26.468 7.055,26.394 7.250 C 26.319 7.445,25.988 7.500,24.899 7.500 C 23.783 7.500,23.500 7.549,23.500 7.744 C 23.500 7.934,23.193 7.997,22.082 8.035 C 21.243 8.064,20.682 8.151,20.707 8.250 C 20.732 8.348,20.100 8.451,19.167 8.500 C 18.023 8.560,17.595 8.641,17.625 8.792 C 17.648 8.906,17.610 8.991,17.542 8.980 C 16.706 8.848,14.833 9.035,14.833 9.250 C 14.833 9.454,14.550 9.500,13.283 9.500 C 12.431 9.500,11.662 9.569,11.575 9.654 C 11.488 9.739,10.824 9.852,10.099 9.906 C 9.374 9.959,8.699 10.069,8.599 10.150 C 8.499 10.231,7.832 10.326,7.117 10.361 C 6.402 10.395,5.764 10.506,5.700 10.607 C 5.636 10.707,4.950 10.825,4.175 10.869 C 3.325 10.917,2.742 11.025,2.703 11.141 C 2.668 11.247,2.542 11.333,2.423 11.333 C 2.098 11.333,1.814 11.755,1.932 12.062 C 2.085 12.461,43.241 12.482,43.394 12.083 C 43.446 11.946,43.642 11.833,43.828 11.833 C 44.018 11.833,44.167 11.724,44.167 11.583 C 44.167 11.446,44.279 11.333,44.417 11.333 C 44.554 11.333,44.667 11.221,44.667 11.083 C 44.667 10.946,44.779 10.833,44.917 10.833 C 45.054 10.833,45.167 10.721,45.167 10.583 C 45.167 10.417,45.333 10.333,45.667 10.333 C 46.000 10.333,46.167 10.250,46.167 10.083 C 46.167 9.946,46.279 9.833,46.417 9.833 C 46.554 9.833,46.667 9.760,46.667 9.670 C 46.667 9.580,46.854 9.459,47.083 9.402 C 47.313 9.344,47.500 9.230,47.500 9.149 C 47.500 9.067,47.586 9.000,47.691 9.000 C 47.797 9.000,48.138 8.737,48.450 8.417 C 48.761 8.096,49.125 7.833,49.258 7.833 C 49.391 7.833,49.500 7.758,49.500 7.667 C 49.500 7.575,49.612 7.500,49.750 7.500 C 49.887 7.500,50.000 7.388,50.000 7.250 C 50.000 7.112,50.112 7.000,50.250 7.000 C 50.387 7.000,50.500 6.888,50.500 6.750 C 50.500 6.594,50.658 6.500,50.922 6.500 C 51.154 6.500,51.387 6.388,51.440 6.250 C 51.492 6.112,51.640 6.000,51.768 6.000 C 51.896 6.000,52.000 5.888,52.000 5.750 C 52.000 5.612,52.112 5.500,52.250 5.500 C 52.387 5.500,52.500 5.388,52.500 5.250 C 52.500 5.094,52.657 5.000,52.917 5.000 C 53.146 5.000,53.334 4.944,53.334 4.875 C 53.334 4.806,53.559 4.600,53.833 4.417 C 54.108 4.233,54.333 3.990,54.333 3.875 C 54.333 3.760,54.427 3.685,54.542 3.708 C 54.666 3.733,54.771 3.533,54.802 3.208 L 54.854 2.667 54.005 2.667 C 53.404 2.667,53.128 2.740,53.060 2.917 M62.167 3.917 C 62.167 4.054,62.054 4.167,61.917 4.167 C 61.737 4.167,61.667 4.350,61.667 4.816 C 61.667 5.238,61.580 5.498,61.417 5.560 C 61.279 5.613,61.167 5.838,61.167 6.060 C 61.167 6.283,61.054 6.508,60.917 6.560 C 60.779 6.613,60.667 6.814,60.667 7.007 C 60.667 7.199,60.554 7.470,60.417 7.607 C 60.279 7.745,60.167 8.114,60.167 8.429 C 60.167 8.825,60.090 9.000,59.917 9.000 C 59.750 9.000,59.667 9.167,59.667 9.500 C 59.667 9.775,59.592 10.000,59.500 10.000 C 59.408 10.000,59.333 10.160,59.333 10.357 C 59.333 10.553,59.223 10.797,59.088 10.898 C 58.954 11.000,58.826 11.360,58.805 11.697 C 58.784 12.035,58.688 12.297,58.592 12.281 C 58.495 12.264,58.393 12.494,58.364 12.792 C 58.332 13.127,58.221 13.333,58.073 13.333 C 57.918 13.333,57.833 13.510,57.833 13.833 C 57.833 14.167,57.750 14.333,57.583 14.333 C 57.408 14.333,57.333 14.510,57.333 14.922 C 57.333 15.291,57.240 15.546,57.083 15.606 C 56.941 15.661,56.833 15.910,56.833 16.184 C 56.833 16.502,56.748 16.667,56.583 16.667 C 56.424 16.667,56.333 16.827,56.333 17.107 C 56.333 17.349,56.223 17.630,56.088 17.732 C 55.954 17.833,55.826 18.198,55.804 18.542 C 55.781 18.922,55.681 19.167,55.549 19.167 C 55.431 19.167,55.333 19.345,55.333 19.563 C 55.333 19.781,55.221 20.053,55.083 20.167 C 54.946 20.281,54.833 20.500,54.833 20.654 C 54.833 20.808,54.759 21.007,54.669 21.097 C 54.579 21.188,54.477 21.518,54.443 21.831 C 54.408 22.145,54.295 22.430,54.190 22.464 C 54.086 22.499,54.000 22.747,54.000 23.014 C 54.000 23.335,53.915 23.500,53.750 23.500 C 53.583 23.500,53.500 23.667,53.500 24.000 C 53.500 24.333,53.417 24.500,53.250 24.500 C 53.069 24.500,53.000 24.685,53.000 25.167 C 53.000 25.648,52.931 25.833,52.750 25.833 C 52.583 25.833,52.500 26.000,52.500 26.333 C 52.500 26.675,52.418 26.833,52.240 26.833 C 52.038 26.833,51.992 26.990,52.032 27.542 L 52.083 28.250 57.583 28.250 L 63.083 28.250 63.126 15.958 L 63.169 3.667 62.668 3.667 C 62.333 3.667,62.167 3.750,62.167 3.917 M56.702 4.923 C 56.584 5.057,56.340 5.167,56.160 5.167 C 55.980 5.167,55.833 5.242,55.833 5.333 C 55.833 5.425,55.687 5.500,55.508 5.500 C 55.330 5.500,55.123 5.595,55.050 5.711 C 54.977 5.827,54.599 6.071,54.210 6.253 C 53.822 6.435,53.503 6.677,53.502 6.792 C 53.501 6.912,53.288 7.000,53.000 7.000 C 52.667 7.000,52.500 7.083,52.500 7.250 C 52.500 7.469,52.192 7.585,51.787 7.518 C 51.716 7.506,51.614 7.610,51.561 7.748 C 51.508 7.887,51.360 8.000,51.232 8.000 C 51.104 8.000,51.000 8.112,51.000 8.250 C 51.000 8.406,50.842 8.500,50.578 8.500 C 50.346 8.500,50.113 8.612,50.060 8.750 C 50.008 8.887,49.785 9.000,49.566 9.000 C 49.322 9.000,49.167 9.097,49.167 9.250 C 49.167 9.387,49.054 9.500,48.917 9.500 C 48.779 9.500,48.667 9.569,48.667 9.653 C 48.667 9.738,48.442 9.856,48.167 9.917 C 47.892 9.977,47.667 10.096,47.667 10.180 C 47.667 10.264,47.522 10.333,47.345 10.333 C 47.168 10.333,46.911 10.446,46.774 10.583 C 46.636 10.721,46.457 10.833,46.376 10.833 C 46.295 10.833,46.025 11.046,45.776 11.306 C 45.191 11.917,45.322 12.333,46.101 12.333 C 46.493 12.333,46.667 12.410,46.667 12.583 C 46.667 12.769,46.861 12.833,47.417 12.833 C 47.972 12.833,48.167 12.898,48.167 13.083 C 48.167 13.221,48.279 13.333,48.417 13.333 C 48.554 13.333,48.667 13.392,48.667 13.463 C 48.667 13.535,48.877 13.673,49.135 13.770 C 49.417 13.877,49.719 14.190,49.893 14.557 C 50.052 14.892,50.254 15.167,50.341 15.167 C 50.429 15.167,50.505 15.373,50.512 15.625 C 50.525 16.135,50.782 16.844,50.859 16.583 C 50.887 16.492,50.948 18.628,50.996 21.331 C 51.079 25.992,51.100 26.249,51.400 26.307 C 51.575 26.340,51.785 26.247,51.867 26.100 C 51.949 25.954,52.125 25.833,52.258 25.833 C 52.433 25.833,52.500 25.630,52.500 25.101 C 52.500 24.652,52.584 24.337,52.718 24.285 C 52.846 24.236,52.953 23.876,52.977 23.414 C 52.999 22.980,53.126 22.517,53.259 22.384 C 53.391 22.251,53.500 21.892,53.500 21.585 C 53.500 21.279,53.585 21.000,53.688 20.965 C 53.791 20.931,53.913 20.512,53.959 20.035 C 54.005 19.557,54.108 19.167,54.188 19.167 C 54.268 19.167,54.333 18.829,54.333 18.417 C 54.333 17.861,54.398 17.667,54.583 17.667 C 54.771 17.667,54.833 17.465,54.833 16.851 C 54.833 16.280,54.908 16.007,55.083 15.940 C 55.260 15.872,55.333 15.597,55.333 15.005 C 55.333 14.384,55.396 14.167,55.575 14.167 C 55.748 14.167,55.830 13.921,55.866 13.292 C 55.900 12.701,55.984 12.430,56.125 12.458 C 56.269 12.487,56.333 12.244,56.333 11.667 C 56.333 11.037,56.394 10.833,56.583 10.833 C 56.768 10.833,56.833 10.641,56.833 10.101 C 56.833 9.652,56.918 9.337,57.051 9.285 C 57.180 9.236,57.286 8.872,57.311 8.394 C 57.337 7.900,57.446 7.533,57.593 7.451 C 57.738 7.370,57.833 7.060,57.833 6.672 C 57.833 6.318,57.910 6.002,58.004 5.971 C 58.098 5.940,58.220 5.633,58.276 5.290 L 58.377 4.667 57.647 4.673 C 57.222 4.677,56.827 4.781,56.702 4.923 M20.244 35.676 C 20.185 35.772,20.136 37.704,20.136 39.967 L 20.136 44.083 31.438 44.083 L 42.741 44.083 42.787 40.032 C 42.822 36.972,42.786 36.010,42.638 36.101 C 42.506 36.183,42.479 36.129,42.553 35.935 C 42.618 35.765,42.596 35.691,42.498 35.751 C 42.407 35.807,42.333 35.774,42.333 35.677 C 42.333 35.429,20.397 35.429,20.244 35.676 " stroke="none" fill="#f29809" fill-rule="evenodd"></path><path id="path2" d="M81.000 15.917 L 81.000 20.500 94.333 20.500 L 107.667 20.500 107.667 23.917 L 107.667 27.333 96.083 27.333 C 85.898 27.333,84.500 27.364,84.500 27.583 C 84.500 27.750,84.333 27.833,84.000 27.833 C 83.667 27.833,83.500 27.917,83.500 28.083 C 83.500 28.221,83.387 28.333,83.250 28.333 C 83.112 28.333,83.000 28.446,83.000 28.583 C 83.000 28.721,82.887 28.833,82.750 28.833 C 82.612 28.833,82.500 28.946,82.500 29.083 C 82.500 29.221,82.387 29.333,82.250 29.333 C 82.112 29.333,82.000 29.438,82.000 29.566 C 82.000 29.693,81.887 29.841,81.750 29.894 C 81.575 29.961,81.500 30.234,81.500 30.810 C 81.500 31.386,81.425 31.660,81.250 31.727 C 81.033 31.810,81.000 32.846,81.000 39.644 C 81.000 46.442,81.033 47.477,81.250 47.560 C 81.415 47.624,81.500 47.885,81.500 48.328 C 81.500 48.814,81.569 49.000,81.750 49.000 C 81.917 49.000,82.000 49.167,82.000 49.500 C 82.000 49.792,82.088 50.000,82.210 50.000 C 82.326 50.000,82.495 50.169,82.585 50.375 C 82.676 50.581,82.919 50.824,83.125 50.915 C 83.331 51.005,83.500 51.174,83.500 51.290 C 83.500 51.405,83.612 51.500,83.750 51.500 C 83.887 51.500,84.000 51.612,84.000 51.750 C 84.000 51.929,84.183 52.000,84.649 52.000 C 85.058 52.000,85.331 52.088,85.389 52.238 C 85.456 52.414,85.890 52.495,87.032 52.547 C 87.885 52.586,88.921 52.706,89.333 52.814 C 90.217 53.044,117.880 53.010,118.111 52.778 C 118.354 52.534,118.286 17.790,118.042 17.708 C 117.907 17.663,117.833 17.296,117.833 16.665 C 117.833 16.021,117.749 15.606,117.583 15.440 C 117.446 15.303,117.333 14.998,117.333 14.762 C 117.333 14.492,117.241 14.333,117.083 14.333 C 116.946 14.333,116.833 14.221,116.833 14.083 C 116.833 13.946,116.721 13.833,116.583 13.833 C 116.446 13.833,116.333 13.759,116.333 13.669 C 116.333 13.415,115.785 12.833,115.546 12.833 C 115.429 12.833,115.333 12.721,115.333 12.583 C 115.333 12.417,115.167 12.333,114.833 12.333 C 114.500 12.333,114.333 12.250,114.333 12.083 C 114.333 11.891,114.119 11.833,113.405 11.833 C 112.802 11.833,112.389 11.746,112.226 11.583 C 112.008 11.365,110.033 11.333,96.488 11.333 L 81.000 11.333 81.000 15.917 M123.167 29.800 C 123.167 41.853,123.109 48.324,123.000 48.433 C 122.675 48.758,122.579 52.143,122.892 52.263 C 123.043 52.321,123.167 52.465,123.167 52.583 C 123.167 53.013,132.347 53.250,133.000 52.837 C 133.215 52.701,133.257 51.591,133.298 44.840 L 133.346 37.000 140.090 37.000 L 146.833 37.000 146.833 44.897 L 146.833 52.794 147.208 52.895 C 147.415 52.950,149.585 52.996,152.032 52.998 L 156.481 53.000 156.949 52.598 L 157.417 52.196 157.470 32.108 C 157.508 17.691,157.471 11.923,157.339 11.677 C 157.159 11.341,157.035 11.333,151.994 11.333 L 146.833 11.333 146.833 19.333 L 146.833 27.333 140.083 27.333 L 133.333 27.333 133.333 19.854 C 133.333 15.741,133.286 12.141,133.229 11.854 L 133.125 11.333 128.146 11.333 L 123.167 11.333 123.167 29.800 M161.042 11.444 C 160.882 11.508,160.833 12.581,160.833 16.014 L 160.833 20.500 166.829 20.500 L 172.825 20.500 172.871 36.569 C 172.896 45.408,172.979 52.701,173.055 52.778 C 173.225 52.947,182.799 52.965,183.208 52.797 C 183.483 52.684,183.500 51.754,183.500 36.591 L 183.500 20.504 189.458 20.460 L 195.417 20.417 195.472 20.022 C 195.503 19.806,195.447 19.547,195.347 19.447 C 195.228 19.328,195.167 17.929,195.167 15.300 L 195.167 11.333 178.208 11.346 C 168.881 11.354,161.156 11.397,161.042 11.444 M199.000 15.917 L 199.000 20.500 212.333 20.500 L 225.667 20.500 225.667 23.917 L 225.667 27.333 214.083 27.333 C 203.898 27.333,202.500 27.364,202.500 27.583 C 202.500 27.750,202.333 27.833,202.000 27.833 C 201.667 27.833,201.500 27.917,201.500 28.083 C 201.500 28.238,201.343 28.333,201.090 28.333 C 200.781 28.333,200.573 28.517,200.241 29.083 C 199.999 29.496,199.734 29.833,199.651 29.833 C 199.568 29.833,199.500 30.139,199.500 30.512 C 199.500 30.893,199.390 31.300,199.250 31.440 C 199.035 31.656,199.000 32.789,199.000 39.575 C 199.000 46.380,199.034 47.488,199.250 47.667 C 199.392 47.785,199.500 48.148,199.500 48.509 C 199.500 48.857,199.612 49.255,199.750 49.393 C 199.887 49.530,200.000 49.723,200.000 49.821 C 200.000 49.920,200.108 50.000,200.239 50.000 C 200.374 50.000,200.501 50.195,200.531 50.448 C 200.570 50.786,200.756 50.981,201.284 51.240 C 201.669 51.429,201.988 51.677,201.992 51.792 C 201.996 51.906,202.206 52.002,202.458 52.005 C 202.710 52.008,203.062 52.121,203.240 52.255 C 203.467 52.427,203.997 52.500,205.018 52.500 C 206.033 52.500,206.493 52.563,206.542 52.708 C 206.677 53.114,235.799 53.001,236.097 52.593 C 236.463 52.092,236.450 19.141,236.083 18.774 C 235.902 18.593,235.833 18.152,235.833 17.173 C 235.833 16.127,235.777 15.801,235.583 15.727 C 235.428 15.668,235.333 15.414,235.333 15.060 C 235.333 14.707,235.238 14.453,235.083 14.394 C 234.946 14.341,234.833 14.193,234.833 14.066 C 234.833 13.938,234.721 13.833,234.583 13.833 C 234.446 13.833,234.333 13.721,234.333 13.583 C 234.333 13.446,234.221 13.333,234.083 13.333 C 233.946 13.333,233.833 13.221,233.833 13.083 C 233.833 12.946,233.721 12.833,233.583 12.833 C 233.446 12.833,233.333 12.721,233.333 12.583 C 233.333 12.419,233.169 12.333,232.851 12.333 C 232.576 12.333,232.328 12.226,232.273 12.083 C 232.202 11.897,231.904 11.833,231.106 11.833 C 230.308 11.833,230.011 11.770,229.940 11.583 C 229.855 11.364,227.977 11.333,214.422 11.333 L 199.000 11.333 199.000 15.917 M241.169 31.875 C 241.171 44.530,241.232 52.513,241.330 52.667 C 241.507 52.947,251.335 53.053,251.611 52.778 C 251.687 52.702,251.772 49.120,251.798 44.820 L 251.846 37.000 263.095 37.000 C 272.940 37.000,274.356 36.969,274.440 36.750 C 274.502 36.587,274.762 36.500,275.184 36.500 C 275.650 36.500,275.833 36.429,275.833 36.250 C 275.833 36.112,275.908 36.000,276.000 36.000 C 276.216 36.000,276.833 35.383,276.833 35.167 C 276.833 35.075,276.946 35.000,277.083 35.000 C 277.221 35.000,277.333 34.859,277.333 34.687 C 277.333 34.515,277.446 34.281,277.583 34.167 C 277.725 34.049,277.833 33.686,277.833 33.331 C 277.833 32.926,277.922 32.668,278.083 32.606 C 278.301 32.523,278.333 31.477,278.333 24.589 C 278.333 17.658,278.302 16.667,278.083 16.667 C 277.894 16.667,277.833 16.462,277.833 15.828 C 277.833 15.236,277.760 14.961,277.583 14.894 C 277.446 14.841,277.333 14.702,277.333 14.586 C 277.333 14.469,277.221 14.281,277.083 14.167 C 276.946 14.053,276.833 13.818,276.833 13.646 C 276.833 13.474,276.721 13.333,276.583 13.333 C 276.446 13.333,276.333 13.221,276.333 13.083 C 276.333 12.928,276.176 12.833,275.917 12.833 C 275.657 12.833,275.500 12.739,275.500 12.583 C 275.500 12.417,275.333 12.333,275.000 12.333 C 274.667 12.333,274.500 12.250,274.500 12.083 C 274.500 11.889,274.276 11.833,273.488 11.833 C 272.811 11.833,272.394 11.751,272.226 11.583 C 272.008 11.365,270.042 11.333,256.571 11.333 L 241.167 11.333 241.169 31.875 M282.278 11.444 C 282.098 11.624,282.150 52.382,282.330 52.667 C 282.465 52.881,283.286 52.917,288.036 52.917 C 294.117 52.917,294.333 52.881,294.333 51.880 C 294.333 51.653,294.434 51.500,294.583 51.500 C 294.721 51.500,294.833 51.396,294.833 51.268 C 294.833 51.140,294.946 50.992,295.083 50.940 C 295.221 50.887,295.333 50.654,295.333 50.422 C 295.333 50.158,295.427 50.000,295.583 50.000 C 295.721 50.000,295.833 49.887,295.833 49.750 C 295.833 49.612,295.908 49.500,296.000 49.500 C 296.092 49.500,296.167 49.324,296.167 49.108 C 296.167 48.869,296.362 48.567,296.667 48.333 C 296.972 48.100,297.167 47.797,297.167 47.558 C 297.167 47.321,297.265 47.167,297.417 47.167 C 297.554 47.167,297.667 47.054,297.667 46.917 C 297.667 46.779,297.779 46.667,297.917 46.667 C 298.083 46.667,298.167 46.500,298.167 46.167 C 298.167 45.833,298.250 45.667,298.417 45.667 C 298.554 45.667,298.667 45.554,298.667 45.417 C 298.667 45.279,298.779 45.167,298.917 45.167 C 299.083 45.167,299.167 45.000,299.167 44.667 C 299.167 44.333,299.250 44.167,299.417 44.167 C 299.554 44.167,299.667 44.054,299.667 43.917 C 299.667 43.779,299.779 43.667,299.917 43.667 C 300.057 43.667,300.167 43.518,300.167 43.325 C 300.167 43.138,300.349 42.815,300.572 42.609 C 300.795 42.402,301.028 42.031,301.090 41.783 C 301.152 41.536,301.270 41.333,301.351 41.333 C 301.433 41.333,301.500 41.221,301.500 41.083 C 301.500 40.946,301.612 40.833,301.750 40.833 C 301.917 40.833,302.000 40.667,302.000 40.333 C 302.000 40.000,302.083 39.833,302.250 39.833 C 302.387 39.833,302.500 39.721,302.500 39.583 C 302.500 39.446,302.612 39.333,302.750 39.333 C 302.906 39.333,303.000 39.176,303.000 38.917 C 303.000 38.657,303.094 38.500,303.250 38.500 C 303.387 38.500,303.500 38.396,303.500 38.268 C 303.500 38.140,303.612 37.992,303.750 37.940 C 303.887 37.887,304.000 37.654,304.000 37.422 C 304.000 37.158,304.094 37.000,304.250 37.000 C 304.387 37.000,304.500 36.896,304.500 36.768 C 304.500 36.640,304.612 36.492,304.750 36.440 C 304.887 36.387,305.000 36.154,305.000 35.922 C 305.000 35.658,305.094 35.500,305.250 35.500 C 305.387 35.500,305.500 35.387,305.500 35.250 C 305.500 35.112,305.567 35.000,305.649 35.000 C 305.730 35.000,305.848 34.798,305.910 34.550 C 305.972 34.303,306.205 33.931,306.428 33.725 C 306.651 33.518,306.833 33.196,306.833 33.008 C 306.833 32.816,306.943 32.667,307.083 32.667 C 307.221 32.667,307.333 32.554,307.333 32.417 C 307.333 32.279,307.446 32.167,307.583 32.167 C 307.750 32.167,307.833 32.000,307.833 31.667 C 307.833 31.333,307.917 31.167,308.083 31.167 C 308.221 31.167,308.333 31.054,308.333 30.917 C 308.333 30.779,308.446 30.667,308.583 30.667 C 308.750 30.667,308.833 30.500,308.833 30.167 C 308.833 29.833,308.917 29.667,309.083 29.667 C 309.303 29.667,309.333 31.056,309.333 41.172 C 309.333 51.973,309.351 52.684,309.625 52.797 C 310.255 53.056,319.167 52.936,319.337 52.667 C 319.436 52.511,319.481 44.652,319.456 31.917 L 319.417 11.417 313.875 11.373 C 309.203 11.336,308.333 11.366,308.333 11.563 C 308.333 11.692,308.221 11.841,308.083 11.894 C 307.946 11.946,307.833 12.179,307.833 12.411 C 307.833 12.675,307.740 12.833,307.583 12.833 C 307.446 12.833,307.333 12.946,307.333 13.083 C 307.333 13.221,307.260 13.333,307.170 13.333 C 307.080 13.333,306.956 13.535,306.894 13.782 C 306.832 14.029,306.605 14.394,306.391 14.593 C 306.176 14.792,306.000 15.115,306.000 15.311 C 306.000 15.516,305.894 15.667,305.750 15.667 C 305.612 15.667,305.500 15.771,305.500 15.899 C 305.500 16.027,305.387 16.174,305.250 16.227 C 305.112 16.280,305.000 16.513,305.000 16.745 C 305.000 17.009,304.906 17.167,304.750 17.167 C 304.612 17.167,304.500 17.279,304.500 17.417 C 304.500 17.554,304.387 17.667,304.250 17.667 C 304.083 17.667,304.000 17.833,304.000 18.167 C 304.000 18.500,303.917 18.667,303.750 18.667 C 303.612 18.667,303.500 18.779,303.500 18.917 C 303.500 19.054,303.387 19.167,303.250 19.167 C 303.112 19.167,303.000 19.312,303.000 19.490 C 303.000 19.667,302.775 20.059,302.500 20.360 C 302.225 20.661,302.000 21.007,302.000 21.128 C 302.000 21.250,301.813 21.523,301.583 21.735 C 301.342 21.959,301.167 22.306,301.167 22.561 C 301.167 22.840,301.076 23.000,300.917 23.000 C 300.779 23.000,300.667 23.113,300.667 23.250 C 300.667 23.387,300.554 23.500,300.417 23.500 C 300.250 23.500,300.167 23.667,300.167 24.000 C 300.167 24.333,300.083 24.500,299.917 24.500 C 299.779 24.500,299.667 24.613,299.667 24.750 C 299.667 24.887,299.554 25.000,299.417 25.000 C 299.261 25.000,299.167 25.157,299.167 25.417 C 299.167 25.676,299.072 25.833,298.917 25.833 C 298.779 25.833,298.667 25.938,298.667 26.066 C 298.667 26.193,298.554 26.341,298.417 26.394 C 298.279 26.446,298.167 26.679,298.167 26.911 C 298.167 27.175,298.073 27.333,297.917 27.333 C 297.779 27.333,297.667 27.438,297.667 27.566 C 297.667 27.693,297.554 27.841,297.417 27.894 C 297.279 27.946,297.167 28.179,297.167 28.411 C 297.167 28.675,297.073 28.833,296.917 28.833 C 296.779 28.833,296.667 28.946,296.667 29.083 C 296.667 29.221,296.592 29.333,296.500 29.333 C 296.408 29.333,296.333 29.521,296.333 29.750 C 296.333 30.009,296.239 30.167,296.083 30.167 C 295.946 30.167,295.833 30.271,295.833 30.399 C 295.833 30.527,295.721 30.674,295.583 30.727 C 295.446 30.780,295.333 31.013,295.333 31.245 C 295.333 31.509,295.240 31.667,295.083 31.667 C 294.946 31.667,294.833 31.779,294.833 31.917 C 294.833 32.054,294.721 32.167,294.583 32.167 C 294.417 32.167,294.333 32.333,294.333 32.667 C 294.333 33.000,294.250 33.167,294.083 33.167 C 293.946 33.167,293.833 33.279,293.833 33.417 C 293.833 33.554,293.721 33.667,293.583 33.667 C 293.431 33.667,293.333 33.822,293.333 34.066 C 293.333 34.285,293.221 34.508,293.083 34.560 C 292.863 34.645,292.833 33.292,292.833 22.995 L 292.833 11.333 287.611 11.333 C 284.739 11.333,282.339 11.383,282.278 11.444 M324.333 22.149 C 324.333 31.609,324.365 32.976,324.583 33.060 C 324.748 33.124,324.833 33.385,324.833 33.828 C 324.833 34.314,324.902 34.500,325.083 34.500 C 325.240 34.500,325.333 34.658,325.333 34.922 C 325.333 35.154,325.446 35.387,325.583 35.440 C 325.721 35.492,325.833 35.640,325.833 35.768 C 325.833 35.904,326.005 36.000,326.250 36.000 C 326.509 36.000,326.667 36.094,326.667 36.250 C 326.667 36.415,326.831 36.500,327.149 36.500 C 327.424 36.500,327.672 36.607,327.727 36.750 C 327.811 36.969,329.255 37.000,339.328 37.000 L 350.833 37.000 350.833 40.167 L 350.833 43.333 337.583 43.333 L 324.333 43.333 324.333 48.073 L 324.333 52.813 325.042 52.915 C 326.510 53.127,353.551 52.931,353.625 52.708 C 353.674 52.560,354.174 52.500,355.352 52.500 C 356.672 52.500,357.030 52.449,357.106 52.250 C 357.161 52.107,357.410 52.000,357.684 52.000 C 358.002 52.000,358.167 51.915,358.167 51.750 C 358.167 51.594,358.325 51.500,358.589 51.500 C 358.821 51.500,359.054 51.387,359.106 51.250 C 359.159 51.112,359.307 51.000,359.434 51.000 C 359.562 51.000,359.667 50.896,359.667 50.768 C 359.667 50.640,359.779 50.492,359.917 50.440 C 360.054 50.387,360.167 50.196,360.167 50.015 C 360.167 49.834,360.242 49.640,360.333 49.583 C 360.425 49.527,360.500 49.260,360.500 48.990 C 360.500 48.666,360.584 48.500,360.750 48.500 C 360.953 48.500,361.000 48.224,361.000 47.018 C 361.000 45.854,361.054 45.515,361.250 45.440 C 361.470 45.355,361.500 43.300,361.500 28.336 L 361.500 11.329 356.208 11.373 L 350.917 11.417 350.873 19.625 L 350.830 27.833 342.665 27.833 L 334.500 27.833 334.500 19.583 L 334.500 11.333 329.417 11.333 L 324.333 11.333 324.333 22.149 M371.227 11.583 C 371.160 11.759,370.886 11.833,370.310 11.833 C 369.734 11.833,369.461 11.908,369.394 12.083 C 369.341 12.221,369.165 12.333,369.003 12.333 C 368.840 12.333,368.614 12.446,368.500 12.583 C 368.386 12.721,368.189 12.833,368.063 12.833 C 367.937 12.833,367.833 12.946,367.833 13.083 C 367.833 13.221,367.740 13.334,367.625 13.335 C 367.510 13.336,367.267 13.655,367.085 14.044 C 366.902 14.432,366.658 14.849,366.543 14.970 C 366.428 15.091,366.333 15.516,366.333 15.915 C 366.333 16.346,366.249 16.667,366.125 16.708 C 365.780 16.823,365.737 46.856,366.081 47.545 C 366.220 47.823,366.333 48.372,366.333 48.764 C 366.333 49.175,366.439 49.582,366.583 49.726 C 366.721 49.864,366.833 50.094,366.833 50.238 C 366.833 50.382,366.946 50.500,367.083 50.500 C 367.221 50.500,367.333 50.575,367.333 50.667 C 367.333 50.883,367.951 51.500,368.167 51.500 C 368.258 51.500,368.333 51.612,368.333 51.750 C 368.333 51.917,368.500 52.000,368.833 52.000 C 369.167 52.000,369.333 52.083,369.333 52.250 C 369.333 52.453,369.607 52.500,370.800 52.500 C 371.751 52.500,372.340 52.573,372.475 52.708 C 372.637 52.871,375.688 52.927,386.342 52.964 L 400.000 53.011 400.000 48.172 L 400.000 43.333 388.250 43.333 L 376.500 43.333 376.500 31.917 L 376.500 20.500 388.250 20.500 L 400.000 20.500 400.000 15.917 L 400.000 11.333 385.661 11.333 C 373.070 11.333,371.311 11.364,371.227 11.583 M267.667 23.917 L 267.667 27.333 259.750 27.333 L 251.833 27.333 251.833 23.917 L 251.833 20.500 259.750 20.500 L 267.667 20.500 267.667 23.917 M107.667 39.917 L 107.667 43.333 99.667 43.333 L 91.667 43.333 91.667 39.917 L 91.667 36.500 99.667 36.500 L 107.667 36.500 107.667 39.917 M225.667 39.917 L 225.667 43.333 217.417 43.333 L 209.167 43.333 209.167 39.917 L 209.167 36.500 217.417 36.500 L 225.667 36.500 225.667 39.917 " stroke="none" fill="#ffff" fill-rule="evenodd"></path></g></svg>